<svg width="192" height="192" viewBox="0 0 192 192" fill="none" xmlns="http://www.w3.org/2000/svg">
  <!-- Android Chrome Icon 192x192 -->
  <rect width="192" height="192" rx="42" fill="#3B82F6"/>
  
  <!-- Material Design 스타일 체크리스트 -->
  <g transform="translate(36, 36)">
    <!-- 배경 카드 -->
    <rect x="0" y="0" width="120" height="120" rx="8" fill="white" opacity="0.1"/>
    
    <!-- 헤더 -->
    <rect x="12" y="12" width="60" height="8" rx="4" fill="white" opacity="0.9"/>
    <rect x="12" y="24" width="40" height="4" rx="2" fill="white" opacity="0.6"/>
    
    <!-- 첫 번째 완료된 항목 -->
    <rect x="12" y="42" width="16" height="16" rx="3" fill="#4ADE80"/>
    <path d="M17 50L20 53L26 47" stroke="white" stroke-width="2" stroke-linecap="round" stroke-linejoin="round"/>
    <rect x="36" y="46" width="60" height="4" rx="2" fill="white" opacity="0.9"/>
    <rect x="36" y="52" width="45" height="3" rx="1.5" fill="white" opacity="0.6"/>
    
    <!-- 두 번째 완료된 항목 -->
    <rect x="12" y="66" width="16" height="16" rx="3" fill="#4ADE80"/>
    <path d="M17 74L20 77L26 71" stroke="white" stroke-width="2" stroke-linecap="round" stroke-linejoin="round"/>
    <rect x="36" y="70" width="55" height="4" rx="2" fill="white" opacity="0.9"/>
    <rect x="36" y="76" width="40" height="3" rx="1.5" fill="white" opacity="0.6"/>
    
    <!-- 세 번째 진행중인 항목 -->
    <rect x="12" y="90" width="16" height="16" rx="3" stroke="white" stroke-width="2" fill="none" opacity="0.8"/>
    <circle cx="20" cy="98" r="2" fill="#FCD34D"/>
    <rect x="36" y="94" width="50" height="4" rx="2" fill="white" opacity="0.8"/>
    <rect x="36" y="100" width="35" height="3" rx="1.5" fill="white" opacity="0.6"/>
  </g>
  
  <!-- 플로팅 액션 버튼 스타일 추가 아이콘 -->
  <circle cx="156" cy="156" r="18" fill="#10B981"/>
  <path d="M150 156L156 156L162 156M156 150L156 162" stroke="white" stroke-width="3" stroke-linecap="round"/>
</svg>